<?xml version="1.0" encoding="utf-8"?>
<!-- Generator: Adobe Illustrator 25.2.0, SVG Export Plug-In . SVG Version: 6.00 Build 0)  -->
<svg version="1.1" xmlns="http://www.w3.org/2000/svg" xmlns:xlink="http://www.w3.org/1999/xlink" x="0px" y="0px"
	 viewBox="0 0 640 640" style="enable-background:new 0 0 640 640;" xml:space="preserve">
<style type="text/css">
	.st0{fill:#FF1718;}
	.st1{fill:#3961BD;}
</style>
<g id="图层_2">
	<path class="st0" d="M387.6,116.14c0,0,14.97,12.08,34.17,16.74c14.81,3.6,31.35,4.48,40.2,5.29c23.05,2.12,27.55,7.33,34.07,11.64
		c7.07,4.67,10.02,8.3,21.29,19.26c-0.08,0.71-12.42-6.53-29.12-12.06c-10.06-3.33-21.32-3.33-35.75-3.54
		c-14.99-0.22-27.9-2.87-37.47-8.09C395.42,134.67,387.45,117.25,387.6,116.14z"/>
	<path class="st0" d="M238.1,425.34c0,0-72.16,41.48-66.48,94.32c5.68,52.84,88.64,55.11,93.75,55.11s43.75-2.84,68.18-9.09
		c15.07-3.86,70.06-18.05,124.88-46.36c34.02-17.57,66.45-42.08,93.87-68.41c0,0-49.59,33.55-65.5,35.25
		c0,0,22.32-17.64,34.25-35.82c0,0-47.88,37.66-71.59,38.64c0,0,81.25-51.14,112.5-89.77c0,0-44.95,33.9-61.16,36.48
		c0,0,23.21-12.16,88.43-104.09c0,0-79.87,74.09-157.67,122.85c-17.51,10.97-34.92,18.92-51.29,26.19
		c-20.36,9.05-30.82,12.73-51.89,18.42c-14.05,3.8-10.63,3.81-50.84,5.89c-21.37,1.11-37.58-4.79-48.63-14.74
		C209.35,472.61,238.1,425.34,238.1,425.34z"/>
</g>
<g id="图层_3">
	<path class="st1" d="M546.82,202.66c0,0-38.32-23.25-45.86-25.76c-7.54-2.51-12.88-3.85-23.87-3.77
		c-16.41,0.12-53.72,13.51-68.79,23.56s-46.18,35.18-46.18,35.18s37.07,26.39,43.98,60c6.91,33.61-3.77,73.5-15.08,87.95
		c0,0,23.33-8.2,33.61-37.38c9.74-27.64,9.11-43.03,12.56-75.39c1.37-12.84,26.77-46.91,46.56-58.22
		c16.87-9.64,6.22-6.49,23.18-9.94C517.77,196.68,546.82,202.66,546.82,202.66z"/>
	<path class="st1" d="M295.44,72.95c0,0-32.47,0.65-34.02,0.93c-14.52,2.67-19.83,4.16-34.53,13.07
		c-21.9,13.27-33.3,48.39-35.23,76.39s14.98,56.9,50.22,68.01c0,0-10.69-12.4-13.1-24.96c0,0,22.03,24.99,38.93,28.37
		s52.04,9.57,61.21,13.43c9.17,3.86,47.35,16.98,56.15,41.49c10.81,30.09,9.08,47.05-4.99,70.5c-15.5,25.84-41.31,39.7-60.08,46.95
		s-46.84,12.06-57.94,11.57c0,0,28.56-11.73,44-21.82c16.64-10.87,41.04-27.9,45.38-60.29c4.34-32.4-75.35-44.67-82.55-45.43
		c-22.95-2.42-39.03-5.53-58.82-12.09c-19.79-6.56-42.39-14.71-63.33-49.6c-13.1-21.84-20.61-51.08-11.23-85.16
		c10.18-37,36.05-70.57,47.1-78.61c0,0-7.8,13.73-14.04,32.44c0,0,31.04-23.28,43.49-28.03c15.48-5.91,30.28-9.78,47.32-8.16
		C277.52,63.66,295.44,72.95,295.44,72.95z"/>
	<path class="st1" d="M155.08,73.62c0,0-36.79,39.86-42.31,81.55c-5.52,41.7,17.78,93.2,36.79,110.99s50.89,28.82,90.75,36.18
		c39.86,7.36,66.16,7.36,79.68,14.72c13.52,7.36,15.98,11.48,18.43,19.53s-1.84,17.87-12.88,28.29
		c-11.04,10.42-19.62,17.78-37.4,27.59c-17.78,9.81-30.33,15.61-44.43,18.68c0,0,34.94-20.93,46.89-35.24
		c11.07-13.27,9.42-19.48,6.81-22.61c-2.96-3.55-15.99-0.79-15.99-0.79s-50.92,7.72-69.31,7.11s-57.18-2.15-82.11-15.2
		c-23.32-12.2-40.52-24.92-65.66-64.77c0,0,14.1,20.24,49.06,33.11c0,0-28.82-37.4-38.02-66.22s-14.72-72.36-14.1-93.2
		c0,0,6.18,25.95,21.54,34.53c0,0,5.44-35.76,21.38-63.35S155.08,73.62,155.08,73.62z"/>
</g>
</svg>
